<svg width="40" height="40" viewBox="0 0 40 40" fill="none" xmlns="http://www.w3.org/2000/svg">
<path d="M20 0C8.955 0 0 8.955 0 20C0 31.045 8.955 40 20 40C31.045 40 40 31.045 40 20C40 8.955 31.045 0 20 0ZM30.5733 26.9383H27.4617C25.7033 26.9383 25.4083 25.9367 23.9583 24.49C22.65 23.1817 21.925 24.185 21.955 26.0483C21.965 26.5433 21.72 26.9383 21.13 26.9383C19.2883 26.9383 16.64 27.1983 13.9567 24.305C11.2117 21.34 8.33333 15.3917 8.33333 14.8067C8.33333 14.46 8.62 14.305 9.09833 14.305H12.2617C13.1 14.305 13.17 14.72 13.405 15.2517C14.3783 17.47 16.7067 21.9217 17.3283 19.4367C17.685 18.01 17.83 14.705 16.3033 14.42C15.4367 14.26 16.9633 13.3333 19.1733 13.3333C19.7233 13.3333 20.32 13.3917 20.93 13.5333C22.0517 13.7933 22.0567 14.2967 22.04 15.03C21.9833 17.8067 21.6483 19.6733 22.38 20.145C23.0783 20.5967 24.915 17.6417 25.8867 15.36C26.1517 14.73 26.205 14.3067 26.9583 14.3067H30.8283C32.855 14.3067 30.5633 17.22 28.8117 19.4933C27.4 21.325 27.475 21.36 29.1167 22.8833C30.285 23.9683 31.6667 25.45 31.6667 26.2883C31.6667 26.685 31.3567 26.9383 30.5733 26.9383Z" fill="#4B729F"/>
</svg>
