<svg width="40" height="40" viewBox="0 0 40 40" fill="none" xmlns="http://www.w3.org/2000/svg">
<path d="M20 40C31.0457 40 40 31.0457 40 20C40 8.9543 31.0457 0 20 0C8.9543 0 0 8.9543 0 20C0 31.0457 8.9543 40 20 40Z" fill="#039BE5"/>
<path d="M9.15162 19.5666L28.4349 12.1316C29.3299 11.8083 30.1116 12.3499 29.8216 13.7033L29.8233 13.7016L26.5399 29.17C26.2966 30.2666 25.6449 30.5333 24.7333 30.0166L19.7333 26.3316L17.3216 28.655C17.0549 28.9216 16.8299 29.1466 16.3133 29.1466L16.6683 24.0583L25.9349 15.6866C26.3383 15.3316 25.8449 15.1316 25.3133 15.485L13.8616 22.695L8.92495 21.155C7.85328 20.815 7.82995 20.0833 9.15162 19.5666Z" fill="white"/>
</svg>
