<svg width="40" height="40" viewBox="0 0 40 40" fill="none" xmlns="http://www.w3.org/2000/svg">
<g clip-path="url(#clip0)">
<path d="M38.5917 23.155C39.785 13.11 38.0183 6.76833 34.8317 3.9L34.8333 3.89833C29.69 -1.00001 12.32 -1.72501 6.16668 4.11833C3.40334 6.97667 2.43001 11.1717 2.32334 16.365C2.21668 21.56 2.09001 31.2917 11.1583 33.9317H11.1667L11.1583 37.9634C11.1583 37.9634 11.0967 39.5967 12.14 39.925C13.3333 40.3117 13.8733 39.5534 17.585 35.12C23.7917 35.6584 28.5583 34.425 29.1 34.245C30.3533 33.825 37.445 32.8867 38.5917 23.155ZM18.1967 32.2834C18.1967 32.2834 14.2683 37.1817 13.0467 38.4534C12.6467 38.8667 12.2083 38.8284 12.215 38.0084C12.215 37.47 12.245 31.315 12.245 31.315C4.55668 29.1117 5.01001 20.825 5.09334 16.49C5.17668 12.1533 5.97001 8.60167 8.31001 6.21C13.7083 1.14833 28.9367 2.28 32.8167 5.92667C37.56 10.1317 35.8717 22.0117 35.8817 22.4167C34.9067 30.54 29.16 31.055 28.1033 31.4067C27.6517 31.5567 23.46 32.635 18.1967 32.2834Z" fill="#6F5DEA"/>
<path d="M20.3699 7.16168C19.7283 7.16168 19.7283 8.16168 20.3699 8.17002C25.3483 8.20835 29.4483 11.6783 29.4933 18.0434C29.4933 18.715 30.4766 18.7067 30.4683 18.035H30.4666C30.4133 11.1767 25.9366 7.20002 20.3699 7.16168Z" fill="#6F5DEA"/>
<path d="M26.9184 16.9883C26.9034 17.6517 27.8851 17.6833 27.8934 17.0117C27.9751 13.23 25.6434 10.115 21.2617 9.78667C20.6201 9.74 20.5534 10.7483 21.1934 10.795C24.9934 11.0833 26.9951 13.6767 26.9184 16.9883Z" fill="#6F5DEA"/>
<path d="M25.8684 21.29C25.0451 20.8133 24.2067 21.11 23.8601 21.5783L23.1351 22.5167C22.7667 22.9933 22.0784 22.93 22.0784 22.93C17.0551 21.6017 15.7117 16.345 15.7117 16.345C15.7117 16.345 15.6501 15.6333 16.1101 15.2517L17.0167 14.5017C17.4701 14.1417 17.7567 13.275 17.2951 12.4233C16.0617 10.195 15.2334 9.42666 14.8117 8.83666C14.3684 8.28166 13.7017 8.15666 13.0084 8.53166H12.9934C11.5517 9.37499 9.97341 10.9533 10.4784 12.5783C11.3401 14.2917 12.9234 19.7533 17.9701 23.88C20.3417 25.8317 24.0951 27.8317 25.6884 28.2933L25.7034 28.3167C27.2734 28.84 28.8001 27.2 29.6151 25.715V25.7033C29.9767 24.985 29.8567 24.305 29.3284 23.86C28.3917 22.9467 26.9784 21.9383 25.8684 21.29Z" fill="#6F5DEA"/>
<path d="M21.9484 13.5067C23.55 13.6 24.3267 14.4367 24.41 16.155C24.44 16.8267 25.415 16.78 25.385 16.1083C25.2784 13.865 24.1084 12.615 22.0017 12.4983C21.36 12.46 21.3 13.4683 21.9484 13.5067Z" fill="#6F5DEA"/>
</g>
<defs>
<clipPath id="clip0">
<rect width="40" height="40" fill="white"/>
</clipPath>
</defs>
</svg>
