<svg width="40" height="40" viewBox="0 0 40 40" fill="none" xmlns="http://www.w3.org/2000/svg">
<g clip-path="url(#clip0)">
<path d="M29.1783 23.845L29.1633 23.97C25.4983 22.1433 25.115 21.9 24.6417 22.61C24.3133 23.1017 23.3567 24.2167 23.0683 24.5467C22.7767 24.8717 22.4867 24.8967 21.9917 24.6717C21.4917 24.4217 19.8867 23.8967 17.9867 22.1967C16.5067 20.8717 15.5133 19.2467 15.22 18.7467C14.7317 17.9033 15.7533 17.7833 16.6833 16.0233C16.85 15.6733 16.765 15.3983 16.6417 15.15C16.5167 14.9 15.5217 12.45 15.105 11.4733C14.705 10.5 14.2933 10.6233 13.985 10.6233C13.025 10.54 12.3233 10.5533 11.705 11.1967C9.01498 14.1533 9.69332 17.2033 11.995 20.4467C16.5183 26.3667 18.9283 27.4567 23.335 28.97C24.525 29.3483 25.61 29.295 26.4683 29.1717C27.425 29.02 29.4133 27.97 29.8283 26.795C30.2533 25.62 30.2533 24.645 30.1283 24.42C30.005 24.195 29.6783 24.07 29.1783 23.845Z" fill="#4CAF50"/>
<path d="M34.2 5.74775C21.385 -6.6406 0.176667 2.34441 0.168333 19.8211C0.168333 23.3144 1.08333 26.7211 2.82667 29.7294L0 39.9994L10.5583 37.2461C23.7333 44.3628 39.9933 34.9128 40 19.8311C40 14.5378 37.9333 9.55608 34.175 5.81275L34.2 5.74775ZM36.67 19.7761C36.66 32.4978 22.695 40.4428 11.65 33.9494L11.05 33.5928L4.8 35.2178L6.475 29.1428L6.07667 28.5178C-0.796667 17.5761 7.1 3.27608 20.12 3.27608C24.5433 3.27608 28.695 5.00108 31.8217 8.12608C34.9467 11.2244 36.67 15.3761 36.67 19.7761Z" fill="#4CAF50"/>
</g>
<defs>
<clipPath id="clip0">
<rect width="40" height="40" fill="white"/>
</clipPath>
</defs>
</svg>
